<mxfile host="65bd71144e">
    <diagram name="PÃ¡gina-1" id="nK1tciAiAnoGGsG4RXKp">
        <mxGraphModel dx="1265" dy="1653" grid="1" gridSize="10" guides="1" tooltips="1" connect="1" arrows="1" fold="1" page="1" pageScale="1" pageWidth="827" pageHeight="1169" math="0" shadow="0">
            <root>
                <mxCell id="0"/>
                <mxCell id="1" parent="0"/>
                <mxCell id="_67Cv4Us2NsQdFtEGARv-15" style="edgeStyle=orthogonalEdgeStyle;rounded=0;orthogonalLoop=1;jettySize=auto;html=1;exitX=0;exitY=0.5;exitDx=0;exitDy=0;entryX=1;entryY=0.5;entryDx=0;entryDy=0;" parent="1" source="iiPUBCEVZnAYS4d27iNx-14" target="_67Cv4Us2NsQdFtEGARv-14" edge="1">
                    <mxGeometry relative="1" as="geometry">
                        <mxPoint x="670" y="277.5" as="sourcePoint"/>
                    </mxGeometry>
                </mxCell>
                <mxCell id="_67Cv4Us2NsQdFtEGARv-19" value="Writes Responses&lt;div&gt;in text files&lt;/div&gt;" style="edgeLabel;html=1;align=center;verticalAlign=middle;resizable=0;points=[];" parent="_67Cv4Us2NsQdFtEGARv-15" connectable="0" vertex="1">
                    <mxGeometry x="0.4" relative="1" as="geometry">
                        <mxPoint x="39" as="offset"/>
                    </mxGeometry>
                </mxCell>
                <mxCell id="xR6Xy04IFiVpwcdjX-Gg-11" value="" style="html=1;shadow=0;dashed=0;align=center;verticalAlign=middle;shape=mxgraph.arrows2.arrow;dy=0.6;dx=40;direction=south;notch=0;" parent="1" vertex="1">
                    <mxGeometry x="50" y="197.5" width="70" height="100" as="geometry"/>
                </mxCell>
                <mxCell id="xR6Xy04IFiVpwcdjX-Gg-15" style="edgeStyle=orthogonalEdgeStyle;rounded=0;orthogonalLoop=1;jettySize=auto;html=1;exitX=0;exitY=0.5;exitDx=0;exitDy=0;entryX=1;entryY=0.5;entryDx=0;entryDy=0;" parent="1" source="iiPUBCEVZnAYS4d27iNx-32" target="_67Cv4Us2NsQdFtEGARv-36" edge="1">
                    <mxGeometry relative="1" as="geometry">
                        <mxPoint x="280" y="730" as="sourcePoint"/>
                        <mxPoint x="540" y="650" as="targetPoint"/>
                    </mxGeometry>
                </mxCell>
                <mxCell id="_67Cv4Us2NsQdFtEGARv-37" value="Shows&lt;div&gt;Bar Graph&lt;/div&gt;" style="edgeLabel;html=1;align=center;verticalAlign=middle;resizable=0;points=[];" parent="xR6Xy04IFiVpwcdjX-Gg-15" connectable="0" vertex="1">
                    <mxGeometry x="0.536" relative="1" as="geometry">
                        <mxPoint x="44" as="offset"/>
                    </mxGeometry>
                </mxCell>
                <mxCell id="_67Cv4Us2NsQdFtEGARv-29" style="edgeStyle=orthogonalEdgeStyle;rounded=0;orthogonalLoop=1;jettySize=auto;html=1;exitX=0;exitY=0;exitDx=0;exitDy=0;entryX=0.5;entryY=1;entryDx=0;entryDy=0;" parent="1" source="23" target="iiPUBCEVZnAYS4d27iNx-10" edge="1">
                    <mxGeometry relative="1" as="geometry">
                        <mxPoint x="400" as="targetPoint"/>
                    </mxGeometry>
                </mxCell>
                <mxCell id="_67Cv4Us2NsQdFtEGARv-61" value="Gets Commits in C&lt;div&gt;from GitHub Repositories&lt;/div&gt;" style="edgeLabel;html=1;align=center;verticalAlign=middle;resizable=0;points=[];" parent="_67Cv4Us2NsQdFtEGARv-29" connectable="0" vertex="1">
                    <mxGeometry x="0.5124" y="-1" relative="1" as="geometry">
                        <mxPoint x="-1" y="-3" as="offset"/>
                    </mxGeometry>
                </mxCell>
                <mxCell id="27" style="edgeStyle=orthogonalEdgeStyle;html=1;exitX=1;exitY=0.5;exitDx=0;exitDy=0;exitPerimeter=0;entryX=0;entryY=0.5;entryDx=0;entryDy=0;rounded=0;" edge="1" parent="1" source="_67Cv4Us2NsQdFtEGARv-7" target="23">
                    <mxGeometry relative="1" as="geometry"/>
                </mxCell>
                <mxCell id="_67Cv4Us2NsQdFtEGARv-7" value="Vulnerabilites&lt;div&gt;DataSet&lt;/div&gt;" style="shape=cylinder3;whiteSpace=wrap;html=1;boundedLbl=1;backgroundOutline=1;size=15;verticalAlign=middle;convertToSvg=0;" parent="1" vertex="1">
                    <mxGeometry x="205" y="80" width="100" height="80" as="geometry"/>
                </mxCell>
                <mxCell id="_67Cv4Us2NsQdFtEGARv-20" style="edgeStyle=orthogonalEdgeStyle;rounded=0;orthogonalLoop=1;jettySize=auto;html=1;exitX=0;exitY=0.5;exitDx=0;exitDy=0;entryX=0.988;entryY=0.768;entryDx=0;entryDy=0;entryPerimeter=0;" parent="1" source="_67Cv4Us2NsQdFtEGARv-14" target="_67Cv4Us2NsQdFtEGARv-47" edge="1">
                    <mxGeometry relative="1" as="geometry">
                        <mxPoint x="130" y="390" as="targetPoint"/>
                    </mxGeometry>
                </mxCell>
                <mxCell id="_67Cv4Us2NsQdFtEGARv-14" value="" style="shape=image;html=1;verticalAlign=top;verticalLabelPosition=bottom;labelBackgroundColor=#ffffff;imageAspect=0;aspect=fixed;image=https://icons.diagrams.net/icon-cache1/File_Extension_Names_Vol_8-2820/12-1366.svg" parent="1" vertex="1">
                    <mxGeometry x="278" y="360" width="72" height="72" as="geometry"/>
                </mxCell>
                <mxCell id="iiPUBCEVZnAYS4d27iNx-33" style="edgeStyle=orthogonalEdgeStyle;rounded=0;orthogonalLoop=1;jettySize=auto;html=1;exitX=0;exitY=0.5;exitDx=0;exitDy=0;entryX=1;entryY=0.5;entryDx=0;entryDy=0;" parent="1" source="17" target="iiPUBCEVZnAYS4d27iNx-32" edge="1">
                    <mxGeometry relative="1" as="geometry"/>
                </mxCell>
                <mxCell id="iiPUBCEVZnAYS4d27iNx-35" value="Creates a bar for&lt;br&gt;each IA model&lt;br&gt;with the frequency&lt;br&gt;of each answer" style="edgeLabel;html=1;align=center;verticalAlign=middle;resizable=0;points=[];" parent="iiPUBCEVZnAYS4d27iNx-33" connectable="0" vertex="1">
                    <mxGeometry x="-0.0278" y="3" relative="1" as="geometry">
                        <mxPoint x="-6" y="-3" as="offset"/>
                    </mxGeometry>
                </mxCell>
                <mxCell id="_67Cv4Us2NsQdFtEGARv-22" value="o&lt;span style=&quot;background-color: transparent; color: light-dark(rgb(0, 0, 0), rgb(255, 255, 255));&quot;&gt;utput.csv&lt;/span&gt;" style="shape=cylinder3;whiteSpace=wrap;html=1;boundedLbl=1;backgroundOutline=1;size=15;" parent="1" vertex="1">
                    <mxGeometry x="680" y="550" width="100" height="80" as="geometry"/>
                </mxCell>
                <mxCell id="_67Cv4Us2NsQdFtEGARv-25" style="edgeStyle=orthogonalEdgeStyle;rounded=0;orthogonalLoop=1;jettySize=auto;html=1;exitX=1;exitY=0.5;exitDx=0;exitDy=0;entryX=0;entryY=0.5;entryDx=0;entryDy=0;entryPerimeter=0;exitPerimeter=0;" parent="1" source="_67Cv4Us2NsQdFtEGARv-46" target="_67Cv4Us2NsQdFtEGARv-7" edge="1">
                    <mxGeometry relative="1" as="geometry">
                        <mxPoint x="279" y="130" as="sourcePoint"/>
                    </mxGeometry>
                </mxCell>
                <mxCell id="_67Cv4Us2NsQdFtEGARv-26" value="&lt;br&gt;&lt;div&gt;&lt;br&gt;&lt;/div&gt;" style="edgeLabel;html=1;align=center;verticalAlign=middle;resizable=0;points=[];" parent="_67Cv4Us2NsQdFtEGARv-25" connectable="0" vertex="1">
                    <mxGeometry x="0.6857" y="-3" relative="1" as="geometry">
                        <mxPoint x="-17" y="-3" as="offset"/>
                    </mxGeometry>
                </mxCell>
                <mxCell id="_67Cv4Us2NsQdFtEGARv-36" value="" style="image;html=1;image=img/lib/clip_art/finance/Graph_128x128.png" parent="1" vertex="1">
                    <mxGeometry x="60" y="780" width="80" height="80" as="geometry"/>
                </mxCell>
                <mxCell id="_67Cv4Us2NsQdFtEGARv-38" value="Legend" style="text;html=1;align=center;verticalAlign=middle;resizable=0;points=[];autosize=1;strokeColor=none;fillColor=none;fontSize=30;" parent="1" vertex="1">
                    <mxGeometry x="1250" y="500" width="120" height="50" as="geometry"/>
                </mxCell>
                <mxCell id="_67Cv4Us2NsQdFtEGARv-39" value="" style="shape=cylinder3;whiteSpace=wrap;html=1;boundedLbl=1;backgroundOutline=1;size=15;verticalAlign=middle;convertToSvg=0;" parent="1" vertex="1">
                    <mxGeometry x="1080" y="560" width="100" height="80" as="geometry"/>
                </mxCell>
                <mxCell id="_67Cv4Us2NsQdFtEGARv-42" value="DataSet" style="text;html=1;align=center;verticalAlign=middle;whiteSpace=wrap;rounded=0;fontSize=16;" parent="1" vertex="1">
                    <mxGeometry x="1200" y="585" width="60" height="30" as="geometry"/>
                </mxCell>
                <mxCell id="_67Cv4Us2NsQdFtEGARv-46" value="Execute&amp;nbsp;&lt;div&gt;main.py&lt;div&gt;&lt;br style=&quot;text-wrap-mode: nowrap;&quot;&gt;&lt;/div&gt;&lt;/div&gt;" style="whiteSpace=wrap;html=1;shape=mxgraph.basic.document" parent="1" vertex="1">
                    <mxGeometry x="30" y="70" width="100" height="100" as="geometry"/>
                </mxCell>
                <mxCell id="iiPUBCEVZnAYS4d27iNx-24" style="edgeStyle=orthogonalEdgeStyle;rounded=0;orthogonalLoop=1;jettySize=auto;html=1;exitX=0.5;exitY=1;exitDx=0;exitDy=0;exitPerimeter=0;entryX=0.5;entryY=0;entryDx=0;entryDy=0;" parent="1" source="_67Cv4Us2NsQdFtEGARv-47" target="iiPUBCEVZnAYS4d27iNx-25" edge="1">
                    <mxGeometry relative="1" as="geometry">
                        <mxPoint x="90.04761904761904" y="560" as="targetPoint"/>
                    </mxGeometry>
                </mxCell>
                <mxCell id="iiPUBCEVZnAYS4d27iNx-26" value="Uses regex module&lt;br&gt;to make a pattern&lt;br&gt;to locate IA answers&lt;br&gt;in it&#39;s response" style="edgeLabel;html=1;align=center;verticalAlign=middle;resizable=0;points=[];" parent="iiPUBCEVZnAYS4d27iNx-24" connectable="0" vertex="1">
                    <mxGeometry x="0.1923" y="-2" relative="1" as="geometry">
                        <mxPoint as="offset"/>
                    </mxGeometry>
                </mxCell>
                <mxCell id="_67Cv4Us2NsQdFtEGARv-47" value="Execute&amp;nbsp;&lt;div&gt;&lt;div&gt;data_analyser.py&lt;/div&gt;&lt;/div&gt;" style="whiteSpace=wrap;html=1;shape=mxgraph.basic.document" parent="1" vertex="1">
                    <mxGeometry x="40" y="320" width="100" height="100" as="geometry"/>
                </mxCell>
                <mxCell id="_67Cv4Us2NsQdFtEGARv-49" value="&lt;div&gt;&lt;div&gt;&lt;br style=&quot;text-wrap-mode: nowrap;&quot;&gt;&lt;/div&gt;&lt;/div&gt;" style="whiteSpace=wrap;html=1;shape=mxgraph.basic.document" parent="1" vertex="1">
                    <mxGeometry x="1080" y="670" width="100" height="100" as="geometry"/>
                </mxCell>
                <mxCell id="_67Cv4Us2NsQdFtEGARv-50" value="Python Executable File" style="text;html=1;align=center;verticalAlign=middle;whiteSpace=wrap;rounded=0;fontSize=16;" parent="1" vertex="1">
                    <mxGeometry x="1200" y="705" width="120" height="30" as="geometry"/>
                </mxCell>
                <mxCell id="_67Cv4Us2NsQdFtEGARv-51" value="" style="shape=image;html=1;verticalAlign=top;verticalLabelPosition=bottom;labelBackgroundColor=#ffffff;imageAspect=0;aspect=fixed;image=https://icons.diagrams.net/icon-cache1/File_Extension_Names_Vol_8-2820/12-1366.svg" parent="1" vertex="1">
                    <mxGeometry x="1360" y="568" width="112" height="112" as="geometry"/>
                </mxCell>
                <mxCell id="_67Cv4Us2NsQdFtEGARv-52" value="Text File" style="text;html=1;align=center;verticalAlign=middle;whiteSpace=wrap;rounded=0;fontSize=16;" parent="1" vertex="1">
                    <mxGeometry x="1472" y="600" width="120" height="30" as="geometry"/>
                </mxCell>
                <mxCell id="_67Cv4Us2NsQdFtEGARv-53" value="" style="ellipse;whiteSpace=wrap;html=1;" parent="1" vertex="1">
                    <mxGeometry x="1070" y="800" width="120" height="80" as="geometry"/>
                </mxCell>
                <mxCell id="_67Cv4Us2NsQdFtEGARv-54" value="Function" style="text;html=1;align=center;verticalAlign=middle;resizable=0;points=[];autosize=1;strokeColor=none;fillColor=none;fontSize=16;" parent="1" vertex="1">
                    <mxGeometry x="1210" y="825" width="80" height="30" as="geometry"/>
                </mxCell>
                <mxCell id="_67Cv4Us2NsQdFtEGARv-56" value="" style="dashed=0;outlineConnect=0;html=1;align=center;labelPosition=center;verticalLabelPosition=bottom;verticalAlign=top;shape=mxgraph.weblogos.github" parent="1" vertex="1">
                    <mxGeometry x="1378.5" y="705" width="75" height="75" as="geometry"/>
                </mxCell>
                <mxCell id="_67Cv4Us2NsQdFtEGARv-57" value="GitHub" style="text;html=1;align=center;verticalAlign=middle;whiteSpace=wrap;rounded=0;fontSize=16;" parent="1" vertex="1">
                    <mxGeometry x="1472" y="727.5" width="120" height="30" as="geometry"/>
                </mxCell>
                <mxCell id="_67Cv4Us2NsQdFtEGARv-58" value="" style="image;html=1;image=img/lib/clip_art/finance/Graph_128x128.png" parent="1" vertex="1">
                    <mxGeometry x="1373.5" y="810" width="80" height="80" as="geometry"/>
                </mxCell>
                <mxCell id="_67Cv4Us2NsQdFtEGARv-59" value="Bar Graph" style="text;html=1;align=center;verticalAlign=middle;whiteSpace=wrap;rounded=0;fontSize=16;" parent="1" vertex="1">
                    <mxGeometry x="1480" y="835" width="120" height="30" as="geometry"/>
                </mxCell>
                <mxCell id="_67Cv4Us2NsQdFtEGARv-63" style="edgeStyle=orthogonalEdgeStyle;rounded=0;orthogonalLoop=1;jettySize=auto;html=1;exitX=0.5;exitY=1;exitDx=0;exitDy=0;exitPerimeter=0;entryX=1.003;entryY=0.329;entryDx=0;entryDy=0;entryPerimeter=0;" parent="1" source="_67Cv4Us2NsQdFtEGARv-7" target="_67Cv4Us2NsQdFtEGARv-47" edge="1">
                    <mxGeometry relative="1" as="geometry">
                        <Array as="points">
                            <mxPoint x="255" y="353"/>
                        </Array>
                    </mxGeometry>
                </mxCell>
                <mxCell id="_67Cv4Us2NsQdFtEGARv-65" style="edgeStyle=orthogonalEdgeStyle;rounded=0;orthogonalLoop=1;jettySize=auto;html=1;entryX=0;entryY=0.5;entryDx=0;entryDy=0;entryPerimeter=0;exitX=1;exitY=0.5;exitDx=0;exitDy=0;" parent="1" source="iiPUBCEVZnAYS4d27iNx-28" target="_67Cv4Us2NsQdFtEGARv-22" edge="1">
                    <mxGeometry relative="1" as="geometry">
                        <mxPoint x="100" y="730" as="sourcePoint"/>
                    </mxGeometry>
                </mxCell>
                <mxCell id="_67Cv4Us2NsQdFtEGARv-66" value="Writes CSV File&lt;div&gt;&amp;nbsp;with IA answers&lt;/div&gt;" style="edgeLabel;html=1;align=center;verticalAlign=middle;resizable=0;points=[];" parent="_67Cv4Us2NsQdFtEGARv-65" connectable="0" vertex="1">
                    <mxGeometry x="-0.2391" y="-1" relative="1" as="geometry">
                        <mxPoint x="30" y="-1" as="offset"/>
                    </mxGeometry>
                </mxCell>
                <mxCell id="iiPUBCEVZnAYS4d27iNx-2" value="" style="edgeStyle=orthogonalEdgeStyle;rounded=0;orthogonalLoop=1;jettySize=auto;html=1;exitX=0.5;exitY=1;exitDx=0;exitDy=0;" parent="1" source="iiPUBCEVZnAYS4d27iNx-13" target="_67Cv4Us2NsQdFtEGARv-46" edge="1">
                    <mxGeometry relative="1" as="geometry">
                        <mxPoint x="80" y="-110" as="sourcePoint"/>
                    </mxGeometry>
                </mxCell>
                <mxCell id="iiPUBCEVZnAYS4d27iNx-3" value="Execute Ollama APP" style="edgeLabel;html=1;align=center;verticalAlign=middle;resizable=0;points=[];" parent="iiPUBCEVZnAYS4d27iNx-2" connectable="0" vertex="1">
                    <mxGeometry x="-0.6503" y="-2" relative="1" as="geometry">
                        <mxPoint as="offset"/>
                    </mxGeometry>
                </mxCell>
                <mxCell id="iiPUBCEVZnAYS4d27iNx-31" style="edgeStyle=orthogonalEdgeStyle;rounded=0;orthogonalLoop=1;jettySize=auto;html=1;exitX=0;exitY=0.5;exitDx=0;exitDy=0;entryX=1;entryY=0.5;entryDx=0;entryDy=0;" parent="1" source="iiPUBCEVZnAYS4d27iNx-1" target="29" edge="1">
                    <mxGeometry relative="1" as="geometry"/>
                </mxCell>
                <mxCell id="iiPUBCEVZnAYS4d27iNx-1" value="" style="shape=image;verticalLabelPosition=bottom;labelBackgroundColor=default;verticalAlign=top;aspect=fixed;imageAspect=0;image=data:image/png,iVBORw0KGgoAAAANSUhEUgAAALUAAAEACAYAAAD1IzfbAAAACXBIWXMAAAsTAAALEwEAmpwYAAAAAXNSR0IArs4c6QAAAARnQU1BAACxjwv8YQUAABzUSURBVHgB7Z0JtGRVdYZ/bTUMDiiKMnYLhKFVJCBOKDxdIM4oEiUaYiNxJRpFkhVwjLTLKVFwiONSGWIaUIFAUNAElUYDRkQFFRAE+8nUzDLP0N7v3aruetU1nLPPuVX3Vu1vrU033f3O+Netc8/ZZ2/JcRzHcRzHcRzHcRzHcRzHcRzHcRzHcRzHcRzHcRzHcRzHcRzHcerIw1RPaNdWhT279euC1p/fV9hvC/tJYSvlVM3GhT2vsO0Ke1Trzx4s7PLCzm39ukrOQDYo7JDCLlQ5WP3sIZXC/tvC1pGTE8aTcWV8GedB88A8MV8byFkLnsQHFXaTBg9iL5st7A2q77dOU2D8GMdZxc8B88b8LZAzx2aFnaX4gey2E+RPDCuMG+OXOgfM42aacnYs7GqlD2bbLi7sqXJiYLwYt1xzwHzuqCll58JuVr7BbNtVhW0jJwTGifHKPQfM686aMrYu7DrlH8y2/b6wTeQMgvFhnKqaA+Z3a00J6xf2K1U3mG37/8L+TE4vGBfGp+o5YJ7X1xTwFVU/mG37rJxeMC6jmoOvaMLZS8P3PnMaBwV7yOmE8WBcRjUHzPdemlDY1L9MoxvMtlHnunKAcRjXHEzkIdmhGv1gtu2DcoBxGNccHKoJg819y2lhLrutsCdruqH/jMO45oD5H8nh2MM1Gt5R2BM0Ph6jCXxSREL/H6Pxwfy/QxMCa6lrZf+E31nYWwp7d2H3J5RzR2FP0nRCv+m/dewYd8afebgzoRx0MBFr6zfLPggPFPaKjrL2V9ruyb9oOqHf1jFjvPfvKIv5eCChvDdrAjhb9gH4SI/yDk8oD7+ER2q6oL8p/jWH9yjzIwnlna2Gg2+B9cnKZYBeJ4L82UXGMrHXarqgv9axYpz7zcFvjWWih0b75iyVfUD3GVDuXgnlnqLpgv5ax2rQock+CeUuVYP5tWydxmdg2M7MD41l31vYhpoO6Cf9tYzTD4eUzfxYfXh+rYaCh5b1k/yWgPL3qLj8SYB+WscoxL0gpfxGevBxvcfS2VsU5tnF9SPrN8G3NR3QT+uTNOR6HPN0i7GOg9RArAP6NYXzTmMddxW2niYb+kc/LePzzvBq5uZrKh4sjyjsVtk6u6fC4VDBumZ8qSYb+mcZF8Yz5pBqT2M96OMRahBc5bF0lGtAsfvIpxvr+qQmG/pnGZfTFQfzZb2WV8mVr6p8P54vG2eoPJKN4WTZmNFkMyMbsePJfJ0hG1adDKQqUe8iG99XPKep/NTHwo3nx2oyoV+WG92M42mKxzJvYNXJWBgWYamfWU+arPulL9JkQr8s4/Er2djGWN+FqoAqntR4YVnEeWNhv5ONH8hGo54UEVj7ZR1H5u1GxYNOsnvtVSFqggla3mp/JtsyAv5PNp6lycTaL+s4Mm8/UzzoZDtlpootFesS4heyc45sPF3pcEixuco3+cUq+8//EzGUO4Ebac0dSSb/BpX7x/xKbAxib+AcdIHKr/87lI61X9ZxBObvZYqH8TpfGalC1H8uGxfIDmF9ryhsC8XBUS0eZ/fG/Zi2VOns8+LCXlDYUwJ/jg/ARq3fL+rx9/gpc5q3XOXLF7/epTjoj+UImvFLCY9snT+rXkbKkbK9NOygNKwnmIsDy9++sA/JfjRvMW6Z/Fdhbyzs0QpjsbGu1BO+HYz1HqkGwJ5lbMfwsU0NY/BR2QZ17wFlcqfv71QGGF81Zru9sKNUBkEf5Jext7H8jyoN5s/iO2/d4+5LFS+Klhh2rC3vVhrW7aEte/zZwsI+VdiVhX1Z9dgl4Ul9gMp1Lx8ynt69Tl+3lI3U7TXm7zrFkz3mYV1EPat0LpWNzTt+jyCObJX1j4U9TvWE3Y1jVb5gHqj54t5cNqzj18ms4ql9IE8iyVu++r6hdDYw1n2iSgeef5fdOWrcdklhr1O5LDnRWMYTlc43jHVnzUCQe/djY9m4Qeng14vnV+zT9YUqRfF4NRe2xRDzctnmgHGzHJ50Y51H2nyVMpFb1I+SjZuUh2sUL+qNNDnMyMY1yoN1Hq266UnuNXXofm031ysPnobORq5xs86jVTc9yS1q6ycu9oChH1fLsZBr3KzzWOsntZXblIdb5FjINW655jGJuoj6ZuUhVznTxkSNf6PuiAWQaxmTCttUvHzNqjzq5lCC0zZuX2/Ysq1Un3wodRm3LEyaqHNsDVrga/fMwn5U2E9VetvdPuRn2FPGAYvTSo6+cezfUePJ3DuucauESRP1Ko0OvmrZGyZTLGK+T3HQ1j+07MTWn22q0neDdMp4/41qeTjKcaucuqypmwRRO/G7QIA4O+EiGivofrAL8cXCdld5oPIJ5dvDnxrqIupcEe5TnaL6wZPsOypvP/MEPb6we1Qtl6sMdL6wsINV7XZlrnEbZ6aC1dRF1LkCNuY6xOmEK06I+VWF/USjhxdN8h7iTI/Iq9i2zDVutQi8mVvUD8pGrkDoOdeGnLK9qbDdVGaHHTc8TVmObFvYMcrb11xlWefRqpue5Ba19bjV6gjVzU7KwzKV9/yOU/1eoniq4lfNdbIrlYdc42adx1q7N+DLa3E9/LTSIYDLH431t42tuTeqOeBZSESlVYnGuOUI7PNpY/1WH/CRwBahpVPLlM57jXW3jdgVofcV6wT72u9Temrm9yqdZca6s24t596n5jY0hw6xb8Ghn1ReRJ6h8mtuM5Unckwqp3Vvlx3WzK9WMw8hEMXHVO6W/Id652gJgR0WHIse3iqTF1R8nFkacNk4ZGvR8sRFLw8oI1WcXnEtKPba+2xhT239nrt4nKxxzX9Rq6wdWr8PvVEdw1kqdzaGnQA2AdbZLEeqyMVOPJJZlaelv2v9npzj52tNrJIV6h36YRCUVfvERmcq/uuHTypPCsJepSSfjDWOtGuxt5qRVyotiWqs8R7y1Va9lvyKZ6oBWNdVo7ZZTW6+8n9QM+YAy/E+NY8qDl9WqP7wJMO/wnKlvwlw1J5dLBWRXS9ViPpy1Z8Pq1x6TCo8AcnbcoXqTxP0ol1V76+75Zo878R+cFMeZ6s6z8euagBss3GkW8cBpF2LNF2k5HIfxXzU5aLEUPBiq+MgHqHpgyA/qSetVdnxqoAq1tTE3cjly5ETgrV8TNMHXn0fVj1BK1WcPWSFE7/zVM+nwiGaXjhl5HSwjvPCC3ttc8UT6YjA23UcONZuMQkvJxFia9dxbjB0U7tIWU/QaIORx9qxcvCVqfNOyG9U6qgW8AlrJyGq62AtlAPvUL0ju6Kj5Cd2qkMTYvmuytQRVUFncXohUQ4CJfEPnmPtQO2kLCMWG0fexNIgxjShYTk15NvjGE2Gs1IuiG29r9a4CPAiyfiuULlL0j5lJbQva13mmNs2O7R+tuqY3RerTIj0B40BPKu4eVHFJxanpm8Vtr8yBw90kuBhQZySw1Tt+xO6GrnnHhVerfydwa2RsAN1jeDvrIFveVyEv6TS9TS3FtDXyITNHvQKKWsH2AbEddHjkDQTliokQmKZl1MX6KzyMw+eoOcrX6P5NP61XMyTAgI8RrYsXf0MvVX2zY3wvqM8DaXTOJZvIGcSIS4g3ne5hI3uKnnwfVx5GkgMutfImXS4nZ7zwsjHlZk9lecrhS02a54/p3nwMolfd47rZehvT2WC4+UcfgNkNvVdjenkpcrzEokOs7g7nJShMafIfnXfmQyIR5jDBfYkJTKToRGnKnOiGqexPFfl7fNUTc3ICEK8OLHyH6uaGBROc2FdnOpYhS5ND8q3J1bMlk6O1MDO5EE+9dSndXRELu6NXZdQIb4bz5Tj9Ifj9RRRo8+o+43vSazwrXKcweBdmXo6/Z7QylgD35BQES+G48gw5TQPgn2SZsSqteCc6inrHXxzN5XjhHOY7HrDn37oVjFP2J8nVHKwHCcOliFcUrBq7k3DKtg5ofBL5PvRjo19ZNfdmcMK/2xC4W+Q49hghUDge4vuyKDw1H4FE19upbHgC+U+0U4ar5D9gdp3F2QmodC3yHHS4GltDbPxs36FHmEskO0/Pwp3cvD3smkQt9TNehV4obHAHOniHAe4WGB1UT2wuzD2lq2XAP5CjpMP622Z47oL2s9YEJm4/PTQyQmp/yxaJFbInBbbOxbPk41TWwU6Ti6+X9hdioc19Vwex7aod5aN78lx8oKgfyQbczpG1Dyyd1A8BBo8R46Tn+WygYPUnKgJQGJJkMmeouVrwnGGcbZsPI3/IOrYlMttfi7HqQaCTz6keOa0jKgXysZv5DjVwF71rOLZgv8g6s1k4xI5TnVcqniIp70AJyZrgJkVcoAXbYK98+a9WOVX4KYte6TK4Ob8ygOEr1SiFV3X+vXqluFPfJHKJV07Bt20MysbmyBqazqCqzVa+PA9p7BNVE469ePIcqtGD/uhhB7eo7DdFH5rHmFzU2OL1v9v1ePfkBqPLS32awmMeKVGD2NNcHU+mHxouTZFFq1RjvW1ssEDREcr/vTmfo0OAnt/U73vst3T+runq3pIskPOFLYxc4aqHeaoc06r3lEk+WEch431jhoNb5VtzIgEZRL1KBK581T7SGEPBLSHAecqWRVH9mwTfU3l9uWqMdpdrXY8Tflh3Bi/kEuwzAfzUrX//BLZxmmGHz7a8IMrVD1fVHy7PqB8sD4+UeXNilU1sgdb7VqsfHzA0I4vqlqWyDY+M/zw0YYfrDpzktXBiq/rvZQGb9AEWgn5hhinPdBqZ2q2WMbLupzaT9WxRLY2zfDDRxt+8B5VBxmgLpOtQxi7CNavxr8q7PqEusdh17fabYFxuiihbuZpgarBuqZ+IT98tPGHq7rtssTYnk57keLgbf/4DPWO045X/PbsizLUu0TVcJixPVvzSb1ZNqoIWkN73qd09oj4t7zxszVY5VfpKKD99CNmJyhmnPrBfFXx0mjNn3k/+9Q3yQbX0i9TXtgbtfqidLJJ4L9jPUkS0scqHV7gcB0gPhxf6StU7rWyn95es7LLgAB4IDBpjCEvfGyTIcbUr3LGDmeg1xf2PwH/PnSchtXJvP1UeVkkGysRdXA8si5I3HiG8rKrRgdxSr6utAA8iJYsCacXdpbKgOIh/L7Hn/HB2r2wl6tM9GR9UlEOlzf+RuW+8ihg3nKL2vJw4wFN7Gu9WLa1y5eVn6XGtnTb4UPq4UlmTa7DrsPJKvNnV/WStKBV/smy78Lc3+rnIA43lt1tS5UXXKEtW6m/aBewqWwdOU/5WWpsS7ftO6AO1pH3GspEJEcVtrVGy9atei0fQvo5aN28r6HMUYh6d2M7vtUugHXeLYYCeMxbLhcM4lDZOtNp9OXRfcrfVrZkOvhhVHGSF8PTWu2IbTv93bZPmYyTZe677VDlxXIYhB3WWciPjYW8Snl5gbEdnfalPmWvp/gIQDjwEH2qLjfmaQftoV0x/aDf6/UpMzWiP/YC5WW5sR2v7SzkU8ZCcq+r2Rn4rbEtGP4R/YIFfj6yrF8pz05MFdAu2hfTn8/3KYvxSvFrYb5ybunhuGVNdDRvm9m6tuLt/xHKy97GtrBtdkCfMndT3FEwuxm5l1a5oX20M2Z8dutT1gGyH5XvrbwcYGzHiu6CyCJqddx5hfLzmcg2MCHv6lMWH7qYpxrOQk2Js007aW9o3xiHfg8hxi9W2J9Rfn4Q2Ya2HdOrsPOMhf238sPX2ccU9kFjy2tQBoOYdB/EMWla4HjaS7tD+3jggLIYx5AtROaF+cl9kriN7A/XN/YqcKmxMAahqm0uHL6/p/4DzQnezICf56l0ucL6QcLJpuZOp92hiVwZj0FLxhmV49pvrpmP56saYt972sYafLW3YudbPXkPz5cNnNerTDNHgwmNRtAdnkx4CZ7dskFX6XlXOEHDYT+Xq2IXqLkwf5zqheSA/0uVy5Z+8ATetWXkZEE0LF1+IrtbxTA4QeUDt57i4WT7Jb3+AoFbw/nS6W1UP/B/CGn/B5UHjqj/SaXn41dUuoR2L2cWqfxW5N/gaB/rUTgI+hHS3xC/kFHzOdm0N2xJpXcnFHyK6gWf/JD1IRce1lE6RLq6tEf5hJLAnwPBE8u7+zSTb5oPKQ/04w8KWzJafUuqYHvZt/Hu0JBlIx21HCG37dWqD6EviG9THgbFVUa41w/5+2cpD29ThqfbCGGpc6bsmjsqpJJjEyrAzTL1elEuQvrBEbFlDdcLy/F7p71XeaA/IUffx6oecFM+ZdyCIvbyj1JCALAMqUOmrpBdj6BPeSCxR9fdluNyRJujAuq7XOOHl9uU08wfKoKYk6pexs8/SeNjfYV9MPdVPo6Tfbxo6y7KR8gJMXWur/FBEKUUlwgs6ubOs5UesIW9zsdrPCxWWBtzviwRdela2cbqc8rLUwLrfabGAxGtUi78YstlcDT7ZmKl2Nc1HmY0vG1V7LfyFh+TZ5sHBzsiVVw2uCmg/hmNHoR4mtJ0xbg9VwYWFXZnYuVVnjYOYkbD21bVQQtbd6TDHubUz/3OKvxm2lygeor66Up/WP6nEnh/hga8S6NnRsPbtVzV8oYBdbNLVHVC1eWqp6jfpTQ9Ef1g40EVDNul+KTSn2jbqp7kuEk9iBsG/B054O9WtVTdPyupejhE5fj1ZZioOeV5c+tXK6s0ekJSKxCOt6qLszAo/sbiiuum7M0D/p0lBUUqKXr4pQK2YUP2k3EeSrnONI790KsC/g1HyjmDLHaz04C/Y+lRZfhh+hVy9B8yTrlJ0QNjlsXHKHX/dXuNHp5UIWFpD1Z1DLuYYI1/F8LBGt53xqfKb4t+oIeU7eLjlMh2Sov+OU4np3M1vH1V5oFcMaTuJaqOczS87+dqfJwiu6bQ43ZK4MiEyjk2XqTxcYTC2rmTquHUIfXOqBp2Uli/j9D4WKQ0t4IjZYRTqZCv8H52kMbLHgpr56mqBk7r+k0cDvpVhV0Y9mFqW47gkCkcJLu20KXpNDjU4byXsQ2Y+5Z5LNQfemxd1SEI21fE1fhflUmJvl3YO9VKtlMB9COkv1VEAYiF+kMOiPpZ9MUOXiCuSKjwJaoHn1BYewmSWSeneQu0n36E9PcTqgfoxKox9Bn1ovvyhMq44l6XiEYLFX6jgvuOuXyrRw3tpv0h/WQ8FqoeoBNrSATs5YogJar+bqoXX1V427kp3TRh096YEAlfVb1AL1atHR9aCUED7zBWwlZSXZ7SbTguJm50TB+erGZAO0O279rGONTt+By9xPSh09Dpo0Mqeb2xglUaHg95XIQcRnQaDkfj3h0YBu2jnTH9qvKwKYXKNbfMWDgvKXWNbmS53MmpF/uhdXtq0x78H2JP5eh/Ha7Z9QLdhL7kdtuyYYW3c8BYCv831Ru+di0Dd3th/6rxf21v0moH7bE8cOrqtdcG/Vh0h14Hbk8+11gwNor84KkQhcl68YFdAw5N9tHoXibXa9V3ouxxMejvc1R/Ui4PDLwFY70UwH3Eur0g9oNcKiknpRg3oAl1tbSwV6qM8Zza/4e1ynllq9wzlJ4P/Z5Wf5sA/e8Xw2+Yvb+zoO7HtnU7ru2g0gS+qzL71UmyP3FxHd1D818mWePyNc+TESd2xpYg4EwWx+XEBeEiMtGEGCte8nDO4RYHt7pZHuRc8/KBeJ3K7b4mwJigI0saEnT70V5/wYDGbH112vPUPPhKtr6c1N2uUTOWHN2gI0t/0W3PB0JoWIFu4wk0Dr/cHPAkJf9hnQSZamepmmzEowAdWSNdrb7w0aluqwsmSZAeVDNhCUAeSaIj3aNmQ/vpB/25Ws0EHf1YNlbrt1PUz5CNs9VsGMiPq3QVPV3NhHbTfvrR1AdMG6ueeuoXt0jLYz9nfOU6wJOuKUuSs1rtnSTQk2Usvt2rsEsNBfHGP67QYlXD3ienVanbarntrla7TBGKGgB6stxhvLS7ILadLJv7V2ry2UBlGjRulFgdvVLtjlb9B7TaM+mgq9gxQr/zzgo2lm2wo0KpTgDkU9ldZcYF9rlJHmQ96Rs0ORe3yn93q76QPC6TBLqyjN1c5Kb24Yv11sdlmi7IsnBWy9rwdGAwN1RawPmbWsbBzSpNN+jK8q6Gjle2Rf1E2RhHMJS6gQCvaZmTB6uu5nTc3tLbWDaauh/q1BurruZ03Ba11efgRjlOfqy6evjq/8h+zH2rHCc/Vl3N6bgtaqsD+b1ynPxYdTWn49Qn9bVynPxYdTXvSW2lqkhDznSTpKu2qO+UDeuuieMMwqqrOR23RZ30tuk4mUnajWv/sPUEqylBX5xmYdXVnI7bor5NNqwnkY4zCKuu5nScuvwISZbjOLFYdTWX8LUtaqvfwpZynPxYdTW3FdgW9UrZyJIpyXG6sOpqLUcoS7J4Lnv6XrWTE/RkCTa0+sCmc+vE4huN83oTwo05zQE9WS5FrNZvp6gvlI1JvSvnjAernlbrN4eo65Y5wGk2Vj311K815NP18pNFJw/oCD1ZdNgz9B1BD+/JWaDjRGJ9sKLbdduFdD5h7y7sF7KxjxwnHauO0O3d7f/pXjZYQx7sp+YGiXTqAfrZTzYG6jYl/VdVWWOd6SA0W28vG/hymZLzpanBFZ16gH4suhua8wWOMRZOtE1r5FRnukE36Meiu2NCKniZsXDsBDlOPOjGqrmgnDacva80VsCnrYlpGZzxgV6sT2l0Gux7ZM1ph50r3wlxwkAn6MWqtajcnfizPpBQ2T/LcYaDTqwaQ5/RftcnJ1RIYHBrDhlnOkAfKQHtT5aBlOy32OWFPUGOszboAn2k6MvsHfq9xIqPl+OsDbpI0VVSwtNdZH8zxcjd8Ro5zhrQgyWnS9vQ4y5KZFlCA7BL5ThrsCTM6rRlygDZU29NbMi2cpxSByk6QodDs/mGOPcT1f19SsPvMTqQqgN0mC17BeK3ZkzClshxSh1YNYT+gm5YhV7DYmG/QnbukuOk6QD9PaSMpPi6YgvlOGU4sRQdZfPZX6ew3yU05JdynDWgB6uW0OE6ysBBCY3AXi3HWQN6SNHTQUqESDlXJTTgbDnO2qALq6bQY1Ja6/0TKseeL8dZG3SRoqv9lUDKJ+okOU5/0MfIVwCc/ljP6O+Th/l1BoM+0IlFX+iy7yn1oH1qYjA8TDa+IPf5cAaDPr4gG+jSFCPkfNk+Rdwbe4wcZzjoxHof9nxFwia5delxiBwnHPRiXYJsoQgONFZEPLMN5TjhoBd0Y9Hbgb0K7LemnpGN09TKkOQ4gaCX02RjJuYfz8r2ybEG+HOmG3Rj0dtsaAUbGSu4v7DHy3HiQTfox6K7jboL67X8eJZsECP4j3KceNCNNTb6WnrtJWprkMcfyXHsWPWzll57iXqxbJwrx7Fj1c9aeu0l6u1l4zw5jh2rfoL0eqPiF+u3yTN0OWmgH3QUq70bexXUCRmOLIcnZBvNen/MmTrQjyXrMnpdt/MPukW9mWxcIsdJx6qjebrtFvXGsnGlHCcdq47m6bZb1I+VjavkOOlYdTRPt92ifqJs3CzHSceqo3m6zbVjcY0cJ50sOuoW9eNkw3c+nBxYdTRPt92itjok+fLDyYFVR/N0m2v5cZscJ50sOuoW9SrZ8NwuTg6sOpqn225R3ygb1q1Ax+nEqqN5uu0W9Z2y4bfHnRxYgz/O022u5ceT5TjpDE190YeBy4+VsrG5HCedqJAHHczTba419VZynHSsOhq4praevVuvgDlOJ1YdDdQtMcpuUbyjNsnP/Sa5kwL6QUex2kOv82I+9npRvFjxLChsTzmOHfSzQPGg14EvihAdeK+FB7JxUrDqJ0ivS2QLKnK7EtMWOFMLukE/Ft0tCalgkbFw7JlynHjQjVVzi7oL67X8mC3sQtlYV44Tj1U3F6lHPL1+XnonKJ4HZbsN7Djo5kHF861ef/gncq3kkB0tBUAAAAAASUVORK5CYII=;" parent="1" vertex="1">
                    <mxGeometry x="880" y="-55" width="77.77" height="110" as="geometry"/>
                </mxCell>
                <mxCell id="iiPUBCEVZnAYS4d27iNx-4" value="" style="shape=image;verticalLabelPosition=bottom;labelBackgroundColor=default;verticalAlign=top;aspect=fixed;imageAspect=0;image=data:image/png,iVBORw0KGgoAAAANSUhEUgAAALUAAAEACAYAAAD1IzfbAAAACXBIWXMAAAsTAAALEwEAmpwYAAAAAXNSR0IArs4c6QAAAARnQU1BAACxjwv8YQUAABzUSURBVHgB7Z0JtGRVdYZ/bTUMDiiKMnYLhKFVJCBOKDxdIM4oEiUaYiNxJRpFkhVwjLTLKVFwiONSGWIaUIFAUNAElUYDRkQFFRAE+8nUzDLP0N7v3aruetU1nLPPuVX3Vu1vrU033f3O+Netc8/ZZ2/JcRzHcRzHcRzHcRzHcRzHcRzHcRzHcRzHcRzHcRzHcRzHcRzHcerIw1RPaNdWhT279euC1p/fV9hvC/tJYSvlVM3GhT2vsO0Ke1Trzx4s7PLCzm39ukrOQDYo7JDCLlQ5WP3sIZXC/tvC1pGTE8aTcWV8GedB88A8MV8byFkLnsQHFXaTBg9iL5st7A2q77dOU2D8GMdZxc8B88b8LZAzx2aFnaX4gey2E+RPDCuMG+OXOgfM42aacnYs7GqlD2bbLi7sqXJiYLwYt1xzwHzuqCll58JuVr7BbNtVhW0jJwTGifHKPQfM686aMrYu7DrlH8y2/b6wTeQMgvFhnKqaA+Z3a00J6xf2K1U3mG37/8L+TE4vGBfGp+o5YJ7X1xTwFVU/mG37rJxeMC6jmoOvaMLZS8P3PnMaBwV7yOmE8WBcRjUHzPdemlDY1L9MoxvMtlHnunKAcRjXHEzkIdmhGv1gtu2DcoBxGNccHKoJg819y2lhLrutsCdruqH/jMO45oD5H8nh2MM1Gt5R2BM0Ph6jCXxSREL/H6Pxwfy/QxMCa6lrZf+E31nYWwp7d2H3J5RzR2FP0nRCv+m/dewYd8afebgzoRx0MBFr6zfLPggPFPaKjrL2V9ruyb9oOqHf1jFjvPfvKIv5eCChvDdrAjhb9gH4SI/yDk8oD7+ER2q6oL8p/jWH9yjzIwnlna2Gg2+B9cnKZYBeJ4L82UXGMrHXarqgv9axYpz7zcFvjWWih0b75iyVfUD3GVDuXgnlnqLpgv5ax2rQock+CeUuVYP5tWydxmdg2M7MD41l31vYhpoO6Cf9tYzTD4eUzfxYfXh+rYaCh5b1k/yWgPL3qLj8SYB+WscoxL0gpfxGevBxvcfS2VsU5tnF9SPrN8G3NR3QT+uTNOR6HPN0i7GOg9RArAP6NYXzTmMddxW2niYb+kc/LePzzvBq5uZrKh4sjyjsVtk6u6fC4VDBumZ8qSYb+mcZF8Yz5pBqT2M96OMRahBc5bF0lGtAsfvIpxvr+qQmG/pnGZfTFQfzZb2WV8mVr6p8P54vG2eoPJKN4WTZmNFkMyMbsePJfJ0hG1adDKQqUe8iG99XPKep/NTHwo3nx2oyoV+WG92M42mKxzJvYNXJWBgWYamfWU+arPulL9JkQr8s4/Er2djGWN+FqoAqntR4YVnEeWNhv5ONH8hGo54UEVj7ZR1H5u1GxYNOsnvtVSFqggla3mp/JtsyAv5PNp6lycTaL+s4Mm8/UzzoZDtlpootFesS4heyc45sPF3pcEixuco3+cUq+8//EzGUO4Ebac0dSSb/BpX7x/xKbAxib+AcdIHKr/87lI61X9ZxBObvZYqH8TpfGalC1H8uGxfIDmF9ryhsC8XBUS0eZ/fG/Zi2VOns8+LCXlDYUwJ/jg/ARq3fL+rx9/gpc5q3XOXLF7/epTjoj+UImvFLCY9snT+rXkbKkbK9NOygNKwnmIsDy9++sA/JfjRvMW6Z/Fdhbyzs0QpjsbGu1BO+HYz1HqkGwJ5lbMfwsU0NY/BR2QZ17wFlcqfv71QGGF81Zru9sKNUBkEf5Jext7H8jyoN5s/iO2/d4+5LFS+Klhh2rC3vVhrW7aEte/zZwsI+VdiVhX1Z9dgl4Ul9gMp1Lx8ynt69Tl+3lI3U7TXm7zrFkz3mYV1EPat0LpWNzTt+jyCObJX1j4U9TvWE3Y1jVb5gHqj54t5cNqzj18ms4ql9IE8iyVu++r6hdDYw1n2iSgeef5fdOWrcdklhr1O5LDnRWMYTlc43jHVnzUCQe/djY9m4Qeng14vnV+zT9YUqRfF4NRe2xRDzctnmgHGzHJ50Y51H2nyVMpFb1I+SjZuUh2sUL+qNNDnMyMY1yoN1Hq266UnuNXXofm031ysPnobORq5xs86jVTc9yS1q6ycu9oChH1fLsZBr3KzzWOsntZXblIdb5FjINW655jGJuoj6ZuUhVznTxkSNf6PuiAWQaxmTCttUvHzNqjzq5lCC0zZuX2/Ysq1Un3wodRm3LEyaqHNsDVrga/fMwn5U2E9VetvdPuRn2FPGAYvTSo6+cezfUePJ3DuucauESRP1Ko0OvmrZGyZTLGK+T3HQ1j+07MTWn22q0neDdMp4/41qeTjKcaucuqypmwRRO/G7QIA4O+EiGivofrAL8cXCdld5oPIJ5dvDnxrqIupcEe5TnaL6wZPsOypvP/MEPb6we1Qtl6sMdL6wsINV7XZlrnEbZ6aC1dRF1LkCNuY6xOmEK06I+VWF/USjhxdN8h7iTI/Iq9i2zDVutQi8mVvUD8pGrkDoOdeGnLK9qbDdVGaHHTc8TVmObFvYMcrb11xlWefRqpue5Ba19bjV6gjVzU7KwzKV9/yOU/1eoniq4lfNdbIrlYdc42adx1q7N+DLa3E9/LTSIYDLH431t42tuTeqOeBZSESlVYnGuOUI7PNpY/1WH/CRwBahpVPLlM57jXW3jdgVofcV6wT72u9Temrm9yqdZca6s24t596n5jY0hw6xb8Ghn1ReRJ6h8mtuM5Unckwqp3Vvlx3WzK9WMw8hEMXHVO6W/Id652gJgR0WHIse3iqTF1R8nFkacNk4ZGvR8sRFLw8oI1WcXnEtKPba+2xhT239nrt4nKxxzX9Rq6wdWr8PvVEdw1kqdzaGnQA2AdbZLEeqyMVOPJJZlaelv2v9npzj52tNrJIV6h36YRCUVfvERmcq/uuHTypPCsJepSSfjDWOtGuxt5qRVyotiWqs8R7y1Va9lvyKZ6oBWNdVo7ZZTW6+8n9QM+YAy/E+NY8qDl9WqP7wJMO/wnKlvwlw1J5dLBWRXS9ViPpy1Z8Pq1x6TCo8AcnbcoXqTxP0ol1V76+75Zo878R+cFMeZ6s6z8euagBss3GkW8cBpF2LNF2k5HIfxXzU5aLEUPBiq+MgHqHpgyA/qSetVdnxqoAq1tTE3cjly5ETgrV8TNMHXn0fVj1BK1WcPWSFE7/zVM+nwiGaXjhl5HSwjvPCC3ttc8UT6YjA23UcONZuMQkvJxFia9dxbjB0U7tIWU/QaIORx9qxcvCVqfNOyG9U6qgW8AlrJyGq62AtlAPvUL0ju6Kj5Cd2qkMTYvmuytQRVUFncXohUQ4CJfEPnmPtQO2kLCMWG0fexNIgxjShYTk15NvjGE2Gs1IuiG29r9a4CPAiyfiuULlL0j5lJbQva13mmNs2O7R+tuqY3RerTIj0B40BPKu4eVHFJxanpm8Vtr8yBw90kuBhQZySw1Tt+xO6GrnnHhVerfydwa2RsAN1jeDvrIFveVyEv6TS9TS3FtDXyITNHvQKKWsH2AbEddHjkDQTliokQmKZl1MX6KzyMw+eoOcrX6P5NP61XMyTAgI8RrYsXf0MvVX2zY3wvqM8DaXTOJZvIGcSIS4g3ne5hI3uKnnwfVx5GkgMutfImXS4nZ7zwsjHlZk9lecrhS02a54/p3nwMolfd47rZehvT2WC4+UcfgNkNvVdjenkpcrzEokOs7g7nJShMafIfnXfmQyIR5jDBfYkJTKToRGnKnOiGqexPFfl7fNUTc3ICEK8OLHyH6uaGBROc2FdnOpYhS5ND8q3J1bMlk6O1MDO5EE+9dSndXRELu6NXZdQIb4bz5Tj9Ifj9RRRo8+o+43vSazwrXKcweBdmXo6/Z7QylgD35BQES+G48gw5TQPgn2SZsSqteCc6inrHXxzN5XjhHOY7HrDn37oVjFP2J8nVHKwHCcOliFcUrBq7k3DKtg5ofBL5PvRjo19ZNfdmcMK/2xC4W+Q49hghUDge4vuyKDw1H4FE19upbHgC+U+0U4ar5D9gdp3F2QmodC3yHHS4GltDbPxs36FHmEskO0/Pwp3cvD3smkQt9TNehV4obHAHOniHAe4WGB1UT2wuzD2lq2XAP5CjpMP622Z47oL2s9YEJm4/PTQyQmp/yxaJFbInBbbOxbPk41TWwU6Ti6+X9hdioc19Vwex7aod5aN78lx8oKgfyQbczpG1Dyyd1A8BBo8R46Tn+WygYPUnKgJQGJJkMmeouVrwnGGcbZsPI3/IOrYlMttfi7HqQaCTz6keOa0jKgXysZv5DjVwF71rOLZgv8g6s1k4xI5TnVcqniIp70AJyZrgJkVcoAXbYK98+a9WOVX4KYte6TK4Ob8ygOEr1SiFV3X+vXqluFPfJHKJV07Bt20MysbmyBqazqCqzVa+PA9p7BNVE469ePIcqtGD/uhhB7eo7DdFH5rHmFzU2OL1v9v1ePfkBqPLS32awmMeKVGD2NNcHU+mHxouTZFFq1RjvW1ssEDREcr/vTmfo0OAnt/U73vst3T+runq3pIskPOFLYxc4aqHeaoc06r3lEk+WEch431jhoNb5VtzIgEZRL1KBK581T7SGEPBLSHAecqWRVH9mwTfU3l9uWqMdpdrXY8Tflh3Bi/kEuwzAfzUrX//BLZxmmGHz7a8IMrVD1fVHy7PqB8sD4+UeXNilU1sgdb7VqsfHzA0I4vqlqWyDY+M/zw0YYfrDpzktXBiq/rvZQGb9AEWgn5hhinPdBqZ2q2WMbLupzaT9WxRLY2zfDDRxt+8B5VBxmgLpOtQxi7CNavxr8q7PqEusdh17fabYFxuiihbuZpgarBuqZ+IT98tPGHq7rtssTYnk57keLgbf/4DPWO045X/PbsizLUu0TVcJixPVvzSb1ZNqoIWkN73qd09oj4t7zxszVY5VfpKKD99CNmJyhmnPrBfFXx0mjNn3k/+9Q3yQbX0i9TXtgbtfqidLJJ4L9jPUkS0scqHV7gcB0gPhxf6StU7rWyn95es7LLgAB4IDBpjCEvfGyTIcbUr3LGDmeg1xf2PwH/PnSchtXJvP1UeVkkGysRdXA8si5I3HiG8rKrRgdxSr6utAA8iJYsCacXdpbKgOIh/L7Hn/HB2r2wl6tM9GR9UlEOlzf+RuW+8ihg3nKL2vJw4wFN7Gu9WLa1y5eVn6XGtnTb4UPq4UlmTa7DrsPJKvNnV/WStKBV/smy78Lc3+rnIA43lt1tS5UXXKEtW6m/aBewqWwdOU/5WWpsS7ftO6AO1pH3GspEJEcVtrVGy9atei0fQvo5aN28r6HMUYh6d2M7vtUugHXeLYYCeMxbLhcM4lDZOtNp9OXRfcrfVrZkOvhhVHGSF8PTWu2IbTv93bZPmYyTZe677VDlxXIYhB3WWciPjYW8Snl5gbEdnfalPmWvp/gIQDjwEH2qLjfmaQftoV0x/aDf6/UpMzWiP/YC5WW5sR2v7SzkU8ZCcq+r2Rn4rbEtGP4R/YIFfj6yrF8pz05MFdAu2hfTn8/3KYvxSvFrYb5ybunhuGVNdDRvm9m6tuLt/xHKy97GtrBtdkCfMndT3FEwuxm5l1a5oX20M2Z8dutT1gGyH5XvrbwcYGzHiu6CyCJqddx5hfLzmcg2MCHv6lMWH7qYpxrOQk2Js007aW9o3xiHfg8hxi9W2J9Rfn4Q2Ya2HdOrsPOMhf238sPX2ccU9kFjy2tQBoOYdB/EMWla4HjaS7tD+3jggLIYx5AtROaF+cl9kriN7A/XN/YqcKmxMAahqm0uHL6/p/4DzQnezICf56l0ucL6QcLJpuZOp92hiVwZj0FLxhmV49pvrpmP56saYt972sYafLW3YudbPXkPz5cNnNerTDNHgwmNRtAdnkx4CZ7dskFX6XlXOEHDYT+Xq2IXqLkwf5zqheSA/0uVy5Z+8ATetWXkZEE0LF1+IrtbxTA4QeUDt57i4WT7Jb3+AoFbw/nS6W1UP/B/CGn/B5UHjqj/SaXn41dUuoR2L2cWqfxW5N/gaB/rUTgI+hHS3xC/kFHzOdm0N2xJpXcnFHyK6gWf/JD1IRce1lE6RLq6tEf5hJLAnwPBE8u7+zSTb5oPKQ/04w8KWzJafUuqYHvZt/Hu0JBlIx21HCG37dWqD6EviG9THgbFVUa41w/5+2cpD29ThqfbCGGpc6bsmjsqpJJjEyrAzTL1elEuQvrBEbFlDdcLy/F7p71XeaA/IUffx6oecFM+ZdyCIvbyj1JCALAMqUOmrpBdj6BPeSCxR9fdluNyRJujAuq7XOOHl9uU08wfKoKYk6pexs8/SeNjfYV9MPdVPo6Tfbxo6y7KR8gJMXWur/FBEKUUlwgs6ubOs5UesIW9zsdrPCxWWBtzviwRdela2cbqc8rLUwLrfabGAxGtUi78YstlcDT7ZmKl2Nc1HmY0vG1V7LfyFh+TZ5sHBzsiVVw2uCmg/hmNHoR4mtJ0xbg9VwYWFXZnYuVVnjYOYkbD21bVQQtbd6TDHubUz/3OKvxm2lygeor66Up/WP6nEnh/hga8S6NnRsPbtVzV8oYBdbNLVHVC1eWqp6jfpTQ9Ef1g40EVDNul+KTSn2jbqp7kuEk9iBsG/B054O9WtVTdPyupejhE5fj1ZZioOeV5c+tXK6s0ekJSKxCOt6qLszAo/sbiiuum7M0D/p0lBUUqKXr4pQK2YUP2k3EeSrnONI790KsC/g1HyjmDLHaz04C/Y+lRZfhh+hVy9B8yTrlJ0QNjlsXHKHX/dXuNHp5UIWFpD1Z1DLuYYI1/F8LBGt53xqfKb4t+oIeU7eLjlMh2Sov+OU4np3M1vH1V5oFcMaTuJaqOczS87+dqfJwiu6bQ43ZK4MiEyjk2XqTxcYTC2rmTquHUIfXOqBp2Uli/j9D4WKQ0t4IjZYRTqZCv8H52kMbLHgpr56mqBk7r+k0cDvpVhV0Y9mFqW47gkCkcJLu20KXpNDjU4byXsQ2Y+5Z5LNQfemxd1SEI21fE1fhflUmJvl3YO9VKtlMB9COkv1VEAYiF+kMOiPpZ9MUOXiCuSKjwJaoHn1BYewmSWSeneQu0n36E9PcTqgfoxKox9Bn1ovvyhMq44l6XiEYLFX6jgvuOuXyrRw3tpv0h/WQ8FqoeoBNrSATs5YogJar+bqoXX1V427kp3TRh096YEAlfVb1AL1atHR9aCUED7zBWwlZSXZ7SbTguJm50TB+erGZAO0O279rGONTt+By9xPSh09Dpo0Mqeb2xglUaHg95XIQcRnQaDkfj3h0YBu2jnTH9qvKwKYXKNbfMWDgvKXWNbmS53MmpF/uhdXtq0x78H2JP5eh/Ha7Z9QLdhL7kdtuyYYW3c8BYCv831Ru+di0Dd3th/6rxf21v0moH7bE8cOrqtdcG/Vh0h14Hbk8+11gwNor84KkQhcl68YFdAw5N9tHoXibXa9V3ouxxMejvc1R/Ui4PDLwFY70UwH3Eur0g9oNcKiknpRg3oAl1tbSwV6qM8Zza/4e1ynllq9wzlJ4P/Z5Wf5sA/e8Xw2+Yvb+zoO7HtnU7ru2g0gS+qzL71UmyP3FxHd1D818mWePyNc+TESd2xpYg4EwWx+XEBeEiMtGEGCte8nDO4RYHt7pZHuRc8/KBeJ3K7b4mwJigI0saEnT70V5/wYDGbH112vPUPPhKtr6c1N2uUTOWHN2gI0t/0W3PB0JoWIFu4wk0Dr/cHPAkJf9hnQSZamepmmzEowAdWSNdrb7w0aluqwsmSZAeVDNhCUAeSaIj3aNmQ/vpB/25Ws0EHf1YNlbrt1PUz5CNs9VsGMiPq3QVPV3NhHbTfvrR1AdMG6ueeuoXt0jLYz9nfOU6wJOuKUuSs1rtnSTQk2Usvt2rsEsNBfHGP67QYlXD3ienVanbarntrla7TBGKGgB6stxhvLS7ILadLJv7V2ry2UBlGjRulFgdvVLtjlb9B7TaM+mgq9gxQr/zzgo2lm2wo0KpTgDkU9ldZcYF9rlJHmQ96Rs0ORe3yn93q76QPC6TBLqyjN1c5Kb24Yv11sdlmi7IsnBWy9rwdGAwN1RawPmbWsbBzSpNN+jK8q6Gjle2Rf1E2RhHMJS6gQCvaZmTB6uu5nTc3tLbWDaauh/q1BurruZ03Ba11efgRjlOfqy6evjq/8h+zH2rHCc/Vl3N6bgtaqsD+b1ynPxYdTWn49Qn9bVynPxYdTXvSW2lqkhDznSTpKu2qO+UDeuuieMMwqqrOR23RZ30tuk4mUnajWv/sPUEqylBX5xmYdXVnI7bor5NNqwnkY4zCKuu5nScuvwISZbjOLFYdTWX8LUtaqvfwpZynPxYdTW3FdgW9UrZyJIpyXG6sOpqLUcoS7J4Lnv6XrWTE/RkCTa0+sCmc+vE4huN83oTwo05zQE9WS5FrNZvp6gvlI1JvSvnjAernlbrN4eo65Y5wGk2Vj311K815NP18pNFJw/oCD1ZdNgz9B1BD+/JWaDjRGJ9sKLbdduFdD5h7y7sF7KxjxwnHauO0O3d7f/pXjZYQx7sp+YGiXTqAfrZTzYG6jYl/VdVWWOd6SA0W28vG/hymZLzpanBFZ16gH4suhua8wWOMRZOtE1r5FRnukE36Meiu2NCKniZsXDsBDlOPOjGqrmgnDacva80VsCnrYlpGZzxgV6sT2l0Gux7ZM1ph50r3wlxwkAn6MWqtajcnfizPpBQ2T/LcYaDTqwaQ5/RftcnJ1RIYHBrDhlnOkAfKQHtT5aBlOy32OWFPUGOszboAn2k6MvsHfq9xIqPl+OsDbpI0VVSwtNdZH8zxcjd8Ro5zhrQgyWnS9vQ4y5KZFlCA7BL5ThrsCTM6rRlygDZU29NbMi2cpxSByk6QodDs/mGOPcT1f19SsPvMTqQqgN0mC17BeK3ZkzClshxSh1YNYT+gm5YhV7DYmG/QnbukuOk6QD9PaSMpPi6YgvlOGU4sRQdZfPZX6ew3yU05JdynDWgB6uW0OE6ysBBCY3AXi3HWQN6SNHTQUqESDlXJTTgbDnO2qALq6bQY1Ja6/0TKseeL8dZG3SRoqv9lUDKJ+okOU5/0MfIVwCc/ljP6O+Th/l1BoM+0IlFX+iy7yn1oH1qYjA8TDa+IPf5cAaDPr4gG+jSFCPkfNk+Rdwbe4wcZzjoxHof9nxFwia5delxiBwnHPRiXYJsoQgONFZEPLMN5TjhoBd0Y9Hbgb0K7LemnpGN09TKkOQ4gaCX02RjJuYfz8r2ybEG+HOmG3Rj0dtsaAUbGSu4v7DHy3HiQTfox6K7jboL67X8eJZsECP4j3KceNCNNTb6WnrtJWprkMcfyXHsWPWzll57iXqxbJwrx7Fj1c9aeu0l6u1l4zw5jh2rfoL0eqPiF+u3yTN0OWmgH3QUq70bexXUCRmOLIcnZBvNen/MmTrQjyXrMnpdt/MPukW9mWxcIsdJx6qjebrtFvXGsnGlHCcdq47m6bZb1I+VjavkOOlYdTRPt92ifqJs3CzHSceqo3m6zbVjcY0cJ50sOuoW9eNkw3c+nBxYdTRPt92itjok+fLDyYFVR/N0m2v5cZscJ50sOuoW9SrZ8NwuTg6sOpqn225R3ygb1q1Ax+nEqqN5uu0W9Z2y4bfHnRxYgz/O022u5ceT5TjpDE190YeBy4+VsrG5HCedqJAHHczTba419VZynHSsOhq4praevVuvgDlOJ1YdDdQtMcpuUbyjNsnP/Sa5kwL6QUex2kOv82I+9npRvFjxLChsTzmOHfSzQPGg14EvihAdeK+FB7JxUrDqJ0ivS2QLKnK7EtMWOFMLukE/Ft0tCalgkbFw7JlynHjQjVVzi7oL67X8mC3sQtlYV44Tj1U3F6lHPL1+XnonKJ4HZbsN7Djo5kHF861ef/gncq3kkB0tBUAAAAAASUVORK5CYII=;" parent="1" vertex="1">
                    <mxGeometry x="1389.87" y="910" width="63.63" height="90" as="geometry"/>
                </mxCell>
                <mxCell id="iiPUBCEVZnAYS4d27iNx-5" value="Ollama" style="text;html=1;align=center;verticalAlign=middle;whiteSpace=wrap;rounded=0;fontSize=16;" parent="1" vertex="1">
                    <mxGeometry x="1480" y="950" width="120" height="30" as="geometry"/>
                </mxCell>
                <mxCell id="iiPUBCEVZnAYS4d27iNx-12" style="edgeStyle=orthogonalEdgeStyle;rounded=0;orthogonalLoop=1;jettySize=auto;html=1;entryX=0;entryY=0.5;entryDx=0;entryDy=0;" parent="1" source="iiPUBCEVZnAYS4d27iNx-11" target="iiPUBCEVZnAYS4d27iNx-10" edge="1">
                    <mxGeometry relative="1" as="geometry">
                        <mxPoint x="330" y="-80" as="sourcePoint"/>
                        <mxPoint x="240" y="-80" as="targetPoint"/>
                        <Array as="points"/>
                    </mxGeometry>
                </mxCell>
                <mxCell id="iiPUBCEVZnAYS4d27iNx-18" style="edgeStyle=orthogonalEdgeStyle;rounded=0;orthogonalLoop=1;jettySize=auto;html=1;exitX=1;exitY=0.5;exitDx=0;exitDy=0;entryX=0;entryY=0.5;entryDx=0;entryDy=0;" parent="1" source="iiPUBCEVZnAYS4d27iNx-10" target="iiPUBCEVZnAYS4d27iNx-17" edge="1">
                    <mxGeometry relative="1" as="geometry"/>
                </mxCell>
                <mxCell id="iiPUBCEVZnAYS4d27iNx-20" value="Creates the prompt&amp;nbsp;&lt;div&gt;for the IA&lt;/div&gt;" style="edgeLabel;html=1;align=center;verticalAlign=middle;resizable=0;points=[];" parent="iiPUBCEVZnAYS4d27iNx-18" connectable="0" vertex="1">
                    <mxGeometry x="0.3069" y="2" relative="1" as="geometry">
                        <mxPoint x="-11" y="2" as="offset"/>
                    </mxGeometry>
                </mxCell>
                <mxCell id="iiPUBCEVZnAYS4d27iNx-10" value="fetch_commit()" style="ellipse;whiteSpace=wrap;html=1;" parent="1" vertex="1">
                    <mxGeometry x="360" y="-100" width="120" height="80" as="geometry"/>
                </mxCell>
                <mxCell id="iiPUBCEVZnAYS4d27iNx-11" value="" style="dashed=0;outlineConnect=0;html=1;align=center;labelPosition=center;verticalLabelPosition=bottom;verticalAlign=top;shape=mxgraph.weblogos.github" parent="1" vertex="1">
                    <mxGeometry x="230" y="-97.5" width="75" height="75" as="geometry"/>
                </mxCell>
                <mxCell id="iiPUBCEVZnAYS4d27iNx-13" value="" style="shape=image;verticalLabelPosition=bottom;labelBackgroundColor=default;verticalAlign=top;aspect=fixed;imageAspect=0;image=data:image/png,iVBORw0KGgoAAAANSUhEUgAAALUAAAEACAYAAAD1IzfbAAAACXBIWXMAAAsTAAALEwEAmpwYAAAAAXNSR0IArs4c6QAAAARnQU1BAACxjwv8YQUAABzUSURBVHgB7Z0JtGRVdYZ/bTUMDiiKMnYLhKFVJCBOKDxdIM4oEiUaYiNxJRpFkhVwjLTLKVFwiONSGWIaUIFAUNAElUYDRkQFFRAE+8nUzDLP0N7v3aruetU1nLPPuVX3Vu1vrU033f3O+Netc8/ZZ2/JcRzHcRzHcRzHcRzHcRzHcRzHcRzHcRzHcRzHcRzHcRzHcRzHcerIw1RPaNdWhT279euC1p/fV9hvC/tJYSvlVM3GhT2vsO0Ke1Trzx4s7PLCzm39ukrOQDYo7JDCLlQ5WP3sIZXC/tvC1pGTE8aTcWV8GedB88A8MV8byFkLnsQHFXaTBg9iL5st7A2q77dOU2D8GMdZxc8B88b8LZAzx2aFnaX4gey2E+RPDCuMG+OXOgfM42aacnYs7GqlD2bbLi7sqXJiYLwYt1xzwHzuqCll58JuVr7BbNtVhW0jJwTGifHKPQfM686aMrYu7DrlH8y2/b6wTeQMgvFhnKqaA+Z3a00J6xf2K1U3mG37/8L+TE4vGBfGp+o5YJ7X1xTwFVU/mG37rJxeMC6jmoOvaMLZS8P3PnMaBwV7yOmE8WBcRjUHzPdemlDY1L9MoxvMtlHnunKAcRjXHEzkIdmhGv1gtu2DcoBxGNccHKoJg819y2lhLrutsCdruqH/jMO45oD5H8nh2MM1Gt5R2BM0Ph6jCXxSREL/H6Pxwfy/QxMCa6lrZf+E31nYWwp7d2H3J5RzR2FP0nRCv+m/dewYd8afebgzoRx0MBFr6zfLPggPFPaKjrL2V9ruyb9oOqHf1jFjvPfvKIv5eCChvDdrAjhb9gH4SI/yDk8oD7+ER2q6oL8p/jWH9yjzIwnlna2Gg2+B9cnKZYBeJ4L82UXGMrHXarqgv9axYpz7zcFvjWWih0b75iyVfUD3GVDuXgnlnqLpgv5ax2rQock+CeUuVYP5tWydxmdg2M7MD41l31vYhpoO6Cf9tYzTD4eUzfxYfXh+rYaCh5b1k/yWgPL3qLj8SYB+WscoxL0gpfxGevBxvcfS2VsU5tnF9SPrN8G3NR3QT+uTNOR6HPN0i7GOg9RArAP6NYXzTmMddxW2niYb+kc/LePzzvBq5uZrKh4sjyjsVtk6u6fC4VDBumZ8qSYb+mcZF8Yz5pBqT2M96OMRahBc5bF0lGtAsfvIpxvr+qQmG/pnGZfTFQfzZb2WV8mVr6p8P54vG2eoPJKN4WTZmNFkMyMbsePJfJ0hG1adDKQqUe8iG99XPKep/NTHwo3nx2oyoV+WG92M42mKxzJvYNXJWBgWYamfWU+arPulL9JkQr8s4/Er2djGWN+FqoAqntR4YVnEeWNhv5ONH8hGo54UEVj7ZR1H5u1GxYNOsnvtVSFqggla3mp/JtsyAv5PNp6lycTaL+s4Mm8/UzzoZDtlpootFesS4heyc45sPF3pcEixuco3+cUq+8//EzGUO4Ebac0dSSb/BpX7x/xKbAxib+AcdIHKr/87lI61X9ZxBObvZYqH8TpfGalC1H8uGxfIDmF9ryhsC8XBUS0eZ/fG/Zi2VOns8+LCXlDYUwJ/jg/ARq3fL+rx9/gpc5q3XOXLF7/epTjoj+UImvFLCY9snT+rXkbKkbK9NOygNKwnmIsDy9++sA/JfjRvMW6Z/Fdhbyzs0QpjsbGu1BO+HYz1HqkGwJ5lbMfwsU0NY/BR2QZ17wFlcqfv71QGGF81Zru9sKNUBkEf5Jext7H8jyoN5s/iO2/d4+5LFS+Klhh2rC3vVhrW7aEte/zZwsI+VdiVhX1Z9dgl4Ul9gMp1Lx8ynt69Tl+3lI3U7TXm7zrFkz3mYV1EPat0LpWNzTt+jyCObJX1j4U9TvWE3Y1jVb5gHqj54t5cNqzj18ms4ql9IE8iyVu++r6hdDYw1n2iSgeef5fdOWrcdklhr1O5LDnRWMYTlc43jHVnzUCQe/djY9m4Qeng14vnV+zT9YUqRfF4NRe2xRDzctnmgHGzHJ50Y51H2nyVMpFb1I+SjZuUh2sUL+qNNDnMyMY1yoN1Hq266UnuNXXofm031ysPnobORq5xs86jVTc9yS1q6ycu9oChH1fLsZBr3KzzWOsntZXblIdb5FjINW655jGJuoj6ZuUhVznTxkSNf6PuiAWQaxmTCttUvHzNqjzq5lCC0zZuX2/Ysq1Un3wodRm3LEyaqHNsDVrga/fMwn5U2E9VetvdPuRn2FPGAYvTSo6+cezfUePJ3DuucauESRP1Ko0OvmrZGyZTLGK+T3HQ1j+07MTWn22q0neDdMp4/41qeTjKcaucuqypmwRRO/G7QIA4O+EiGivofrAL8cXCdld5oPIJ5dvDnxrqIupcEe5TnaL6wZPsOypvP/MEPb6we1Qtl6sMdL6wsINV7XZlrnEbZ6aC1dRF1LkCNuY6xOmEK06I+VWF/USjhxdN8h7iTI/Iq9i2zDVutQi8mVvUD8pGrkDoOdeGnLK9qbDdVGaHHTc8TVmObFvYMcrb11xlWefRqpue5Ba19bjV6gjVzU7KwzKV9/yOU/1eoniq4lfNdbIrlYdc42adx1q7N+DLa3E9/LTSIYDLH431t42tuTeqOeBZSESlVYnGuOUI7PNpY/1WH/CRwBahpVPLlM57jXW3jdgVofcV6wT72u9Temrm9yqdZca6s24t596n5jY0hw6xb8Ghn1ReRJ6h8mtuM5Unckwqp3Vvlx3WzK9WMw8hEMXHVO6W/Id652gJgR0WHIse3iqTF1R8nFkacNk4ZGvR8sRFLw8oI1WcXnEtKPba+2xhT239nrt4nKxxzX9Rq6wdWr8PvVEdw1kqdzaGnQA2AdbZLEeqyMVOPJJZlaelv2v9npzj52tNrJIV6h36YRCUVfvERmcq/uuHTypPCsJepSSfjDWOtGuxt5qRVyotiWqs8R7y1Va9lvyKZ6oBWNdVo7ZZTW6+8n9QM+YAy/E+NY8qDl9WqP7wJMO/wnKlvwlw1J5dLBWRXS9ViPpy1Z8Pq1x6TCo8AcnbcoXqTxP0ol1V76+75Zo878R+cFMeZ6s6z8euagBss3GkW8cBpF2LNF2k5HIfxXzU5aLEUPBiq+MgHqHpgyA/qSetVdnxqoAq1tTE3cjly5ETgrV8TNMHXn0fVj1BK1WcPWSFE7/zVM+nwiGaXjhl5HSwjvPCC3ttc8UT6YjA23UcONZuMQkvJxFia9dxbjB0U7tIWU/QaIORx9qxcvCVqfNOyG9U6qgW8AlrJyGq62AtlAPvUL0ju6Kj5Cd2qkMTYvmuytQRVUFncXohUQ4CJfEPnmPtQO2kLCMWG0fexNIgxjShYTk15NvjGE2Gs1IuiG29r9a4CPAiyfiuULlL0j5lJbQva13mmNs2O7R+tuqY3RerTIj0B40BPKu4eVHFJxanpm8Vtr8yBw90kuBhQZySw1Tt+xO6GrnnHhVerfydwa2RsAN1jeDvrIFveVyEv6TS9TS3FtDXyITNHvQKKWsH2AbEddHjkDQTliokQmKZl1MX6KzyMw+eoOcrX6P5NP61XMyTAgI8RrYsXf0MvVX2zY3wvqM8DaXTOJZvIGcSIS4g3ne5hI3uKnnwfVx5GkgMutfImXS4nZ7zwsjHlZk9lecrhS02a54/p3nwMolfd47rZehvT2WC4+UcfgNkNvVdjenkpcrzEokOs7g7nJShMafIfnXfmQyIR5jDBfYkJTKToRGnKnOiGqexPFfl7fNUTc3ICEK8OLHyH6uaGBROc2FdnOpYhS5ND8q3J1bMlk6O1MDO5EE+9dSndXRELu6NXZdQIb4bz5Tj9Ifj9RRRo8+o+43vSazwrXKcweBdmXo6/Z7QylgD35BQES+G48gw5TQPgn2SZsSqteCc6inrHXxzN5XjhHOY7HrDn37oVjFP2J8nVHKwHCcOliFcUrBq7k3DKtg5ofBL5PvRjo19ZNfdmcMK/2xC4W+Q49hghUDge4vuyKDw1H4FE19upbHgC+U+0U4ar5D9gdp3F2QmodC3yHHS4GltDbPxs36FHmEskO0/Pwp3cvD3smkQt9TNehV4obHAHOniHAe4WGB1UT2wuzD2lq2XAP5CjpMP622Z47oL2s9YEJm4/PTQyQmp/yxaJFbInBbbOxbPk41TWwU6Ti6+X9hdioc19Vwex7aod5aN78lx8oKgfyQbczpG1Dyyd1A8BBo8R46Tn+WygYPUnKgJQGJJkMmeouVrwnGGcbZsPI3/IOrYlMttfi7HqQaCTz6keOa0jKgXysZv5DjVwF71rOLZgv8g6s1k4xI5TnVcqniIp70AJyZrgJkVcoAXbYK98+a9WOVX4KYte6TK4Ob8ygOEr1SiFV3X+vXqluFPfJHKJV07Bt20MysbmyBqazqCqzVa+PA9p7BNVE469ePIcqtGD/uhhB7eo7DdFH5rHmFzU2OL1v9v1ePfkBqPLS32awmMeKVGD2NNcHU+mHxouTZFFq1RjvW1ssEDREcr/vTmfo0OAnt/U73vst3T+runq3pIskPOFLYxc4aqHeaoc06r3lEk+WEch431jhoNb5VtzIgEZRL1KBK581T7SGEPBLSHAecqWRVH9mwTfU3l9uWqMdpdrXY8Tflh3Bi/kEuwzAfzUrX//BLZxmmGHz7a8IMrVD1fVHy7PqB8sD4+UeXNilU1sgdb7VqsfHzA0I4vqlqWyDY+M/zw0YYfrDpzktXBiq/rvZQGb9AEWgn5hhinPdBqZ2q2WMbLupzaT9WxRLY2zfDDRxt+8B5VBxmgLpOtQxi7CNavxr8q7PqEusdh17fabYFxuiihbuZpgarBuqZ+IT98tPGHq7rtssTYnk57keLgbf/4DPWO045X/PbsizLUu0TVcJixPVvzSb1ZNqoIWkN73qd09oj4t7zxszVY5VfpKKD99CNmJyhmnPrBfFXx0mjNn3k/+9Q3yQbX0i9TXtgbtfqidLJJ4L9jPUkS0scqHV7gcB0gPhxf6StU7rWyn95es7LLgAB4IDBpjCEvfGyTIcbUr3LGDmeg1xf2PwH/PnSchtXJvP1UeVkkGysRdXA8si5I3HiG8rKrRgdxSr6utAA8iJYsCacXdpbKgOIh/L7Hn/HB2r2wl6tM9GR9UlEOlzf+RuW+8ihg3nKL2vJw4wFN7Gu9WLa1y5eVn6XGtnTb4UPq4UlmTa7DrsPJKvNnV/WStKBV/smy78Lc3+rnIA43lt1tS5UXXKEtW6m/aBewqWwdOU/5WWpsS7ftO6AO1pH3GspEJEcVtrVGy9atei0fQvo5aN28r6HMUYh6d2M7vtUugHXeLYYCeMxbLhcM4lDZOtNp9OXRfcrfVrZkOvhhVHGSF8PTWu2IbTv93bZPmYyTZe677VDlxXIYhB3WWciPjYW8Snl5gbEdnfalPmWvp/gIQDjwEH2qLjfmaQftoV0x/aDf6/UpMzWiP/YC5WW5sR2v7SzkU8ZCcq+r2Rn4rbEtGP4R/YIFfj6yrF8pz05MFdAu2hfTn8/3KYvxSvFrYb5ybunhuGVNdDRvm9m6tuLt/xHKy97GtrBtdkCfMndT3FEwuxm5l1a5oX20M2Z8dutT1gGyH5XvrbwcYGzHiu6CyCJqddx5hfLzmcg2MCHv6lMWH7qYpxrOQk2Js007aW9o3xiHfg8hxi9W2J9Rfn4Q2Ya2HdOrsPOMhf238sPX2ccU9kFjy2tQBoOYdB/EMWla4HjaS7tD+3jggLIYx5AtROaF+cl9kriN7A/XN/YqcKmxMAahqm0uHL6/p/4DzQnezICf56l0ucL6QcLJpuZOp92hiVwZj0FLxhmV49pvrpmP56saYt972sYafLW3YudbPXkPz5cNnNerTDNHgwmNRtAdnkx4CZ7dskFX6XlXOEHDYT+Xq2IXqLkwf5zqheSA/0uVy5Z+8ATetWXkZEE0LF1+IrtbxTA4QeUDt57i4WT7Jb3+AoFbw/nS6W1UP/B/CGn/B5UHjqj/SaXn41dUuoR2L2cWqfxW5N/gaB/rUTgI+hHS3xC/kFHzOdm0N2xJpXcnFHyK6gWf/JD1IRce1lE6RLq6tEf5hJLAnwPBE8u7+zSTb5oPKQ/04w8KWzJafUuqYHvZt/Hu0JBlIx21HCG37dWqD6EviG9THgbFVUa41w/5+2cpD29ThqfbCGGpc6bsmjsqpJJjEyrAzTL1elEuQvrBEbFlDdcLy/F7p71XeaA/IUffx6oecFM+ZdyCIvbyj1JCALAMqUOmrpBdj6BPeSCxR9fdluNyRJujAuq7XOOHl9uU08wfKoKYk6pexs8/SeNjfYV9MPdVPo6Tfbxo6y7KR8gJMXWur/FBEKUUlwgs6ubOs5UesIW9zsdrPCxWWBtzviwRdela2cbqc8rLUwLrfabGAxGtUi78YstlcDT7ZmKl2Nc1HmY0vG1V7LfyFh+TZ5sHBzsiVVw2uCmg/hmNHoR4mtJ0xbg9VwYWFXZnYuVVnjYOYkbD21bVQQtbd6TDHubUz/3OKvxm2lygeor66Up/WP6nEnh/hga8S6NnRsPbtVzV8oYBdbNLVHVC1eWqp6jfpTQ9Ef1g40EVDNul+KTSn2jbqp7kuEk9iBsG/B054O9WtVTdPyupejhE5fj1ZZioOeV5c+tXK6s0ekJSKxCOt6qLszAo/sbiiuum7M0D/p0lBUUqKXr4pQK2YUP2k3EeSrnONI790KsC/g1HyjmDLHaz04C/Y+lRZfhh+hVy9B8yTrlJ0QNjlsXHKHX/dXuNHp5UIWFpD1Z1DLuYYI1/F8LBGt53xqfKb4t+oIeU7eLjlMh2Sov+OU4np3M1vH1V5oFcMaTuJaqOczS87+dqfJwiu6bQ43ZK4MiEyjk2XqTxcYTC2rmTquHUIfXOqBp2Uli/j9D4WKQ0t4IjZYRTqZCv8H52kMbLHgpr56mqBk7r+k0cDvpVhV0Y9mFqW47gkCkcJLu20KXpNDjU4byXsQ2Y+5Z5LNQfemxd1SEI21fE1fhflUmJvl3YO9VKtlMB9COkv1VEAYiF+kMOiPpZ9MUOXiCuSKjwJaoHn1BYewmSWSeneQu0n36E9PcTqgfoxKox9Bn1ovvyhMq44l6XiEYLFX6jgvuOuXyrRw3tpv0h/WQ8FqoeoBNrSATs5YogJar+bqoXX1V427kp3TRh096YEAlfVb1AL1atHR9aCUED7zBWwlZSXZ7SbTguJm50TB+erGZAO0O279rGONTt+By9xPSh09Dpo0Mqeb2xglUaHg95XIQcRnQaDkfj3h0YBu2jnTH9qvKwKYXKNbfMWDgvKXWNbmS53MmpF/uhdXtq0x78H2JP5eh/Ha7Z9QLdhL7kdtuyYYW3c8BYCv831Ru+di0Dd3th/6rxf21v0moH7bE8cOrqtdcG/Vh0h14Hbk8+11gwNor84KkQhcl68YFdAw5N9tHoXibXa9V3ouxxMejvc1R/Ui4PDLwFY70UwH3Eur0g9oNcKiknpRg3oAl1tbSwV6qM8Zza/4e1ynllq9wzlJ4P/Z5Wf5sA/e8Xw2+Yvb+zoO7HtnU7ru2g0gS+qzL71UmyP3FxHd1D818mWePyNc+TESd2xpYg4EwWx+XEBeEiMtGEGCte8nDO4RYHt7pZHuRc8/KBeJ3K7b4mwJigI0saEnT70V5/wYDGbH112vPUPPhKtr6c1N2uUTOWHN2gI0t/0W3PB0JoWIFu4wk0Dr/cHPAkJf9hnQSZamepmmzEowAdWSNdrb7w0aluqwsmSZAeVDNhCUAeSaIj3aNmQ/vpB/25Ws0EHf1YNlbrt1PUz5CNs9VsGMiPq3QVPV3NhHbTfvrR1AdMG6ueeuoXt0jLYz9nfOU6wJOuKUuSs1rtnSTQk2Usvt2rsEsNBfHGP67QYlXD3ienVanbarntrla7TBGKGgB6stxhvLS7ILadLJv7V2ry2UBlGjRulFgdvVLtjlb9B7TaM+mgq9gxQr/zzgo2lm2wo0KpTgDkU9ldZcYF9rlJHmQ96Rs0ORe3yn93q76QPC6TBLqyjN1c5Kb24Yv11sdlmi7IsnBWy9rwdGAwN1RawPmbWsbBzSpNN+jK8q6Gjle2Rf1E2RhHMJS6gQCvaZmTB6uu5nTc3tLbWDaauh/q1BurruZ03Ba11efgRjlOfqy6evjq/8h+zH2rHCc/Vl3N6bgtaqsD+b1ynPxYdTWn49Qn9bVynPxYdTXvSW2lqkhDznSTpKu2qO+UDeuuieMMwqqrOR23RZ30tuk4mUnajWv/sPUEqylBX5xmYdXVnI7bor5NNqwnkY4zCKuu5nScuvwISZbjOLFYdTWX8LUtaqvfwpZynPxYdTW3FdgW9UrZyJIpyXG6sOpqLUcoS7J4Lnv6XrWTE/RkCTa0+sCmc+vE4huN83oTwo05zQE9WS5FrNZvp6gvlI1JvSvnjAernlbrN4eo65Y5wGk2Vj311K815NP18pNFJw/oCD1ZdNgz9B1BD+/JWaDjRGJ9sKLbdduFdD5h7y7sF7KxjxwnHauO0O3d7f/pXjZYQx7sp+YGiXTqAfrZTzYG6jYl/VdVWWOd6SA0W28vG/hymZLzpanBFZ16gH4suhua8wWOMRZOtE1r5FRnukE36Meiu2NCKniZsXDsBDlOPOjGqrmgnDacva80VsCnrYlpGZzxgV6sT2l0Gux7ZM1ph50r3wlxwkAn6MWqtajcnfizPpBQ2T/LcYaDTqwaQ5/RftcnJ1RIYHBrDhlnOkAfKQHtT5aBlOy32OWFPUGOszboAn2k6MvsHfq9xIqPl+OsDbpI0VVSwtNdZH8zxcjd8Ro5zhrQgyWnS9vQ4y5KZFlCA7BL5ThrsCTM6rRlygDZU29NbMi2cpxSByk6QodDs/mGOPcT1f19SsPvMTqQqgN0mC17BeK3ZkzClshxSh1YNYT+gm5YhV7DYmG/QnbukuOk6QD9PaSMpPi6YgvlOGU4sRQdZfPZX6ew3yU05JdynDWgB6uW0OE6ysBBCY3AXi3HWQN6SNHTQUqESDlXJTTgbDnO2qALq6bQY1Ja6/0TKseeL8dZG3SRoqv9lUDKJ+okOU5/0MfIVwCc/ljP6O+Th/l1BoM+0IlFX+iy7yn1oH1qYjA8TDa+IPf5cAaDPr4gG+jSFCPkfNk+Rdwbe4wcZzjoxHof9nxFwia5delxiBwnHPRiXYJsoQgONFZEPLMN5TjhoBd0Y9Hbgb0K7LemnpGN09TKkOQ4gaCX02RjJuYfz8r2ybEG+HOmG3Rj0dtsaAUbGSu4v7DHy3HiQTfox6K7jboL67X8eJZsECP4j3KceNCNNTb6WnrtJWprkMcfyXHsWPWzll57iXqxbJwrx7Fj1c9aeu0l6u1l4zw5jh2rfoL0eqPiF+u3yTN0OWmgH3QUq70bexXUCRmOLIcnZBvNen/MmTrQjyXrMnpdt/MPukW9mWxcIsdJx6qjebrtFvXGsnGlHCcdq47m6bZb1I+VjavkOOlYdTRPt92ifqJs3CzHSceqo3m6zbVjcY0cJ50sOuoW9eNkw3c+nBxYdTRPt92itjok+fLDyYFVR/N0m2v5cZscJ50sOuoW9SrZ8NwuTg6sOpqn225R3ygb1q1Ax+nEqqN5uu0W9Z2y4bfHnRxYgz/O022u5ceT5TjpDE190YeBy4+VsrG5HCedqJAHHczTba419VZynHSsOhq4praevVuvgDlOJ1YdDdQtMcpuUbyjNsnP/Sa5kwL6QUex2kOv82I+9npRvFjxLChsTzmOHfSzQPGg14EvihAdeK+FB7JxUrDqJ0ivS2QLKnK7EtMWOFMLukE/Ft0tCalgkbFw7JlynHjQjVVzi7oL67X8mC3sQtlYV44Tj1U3F6lHPL1+XnonKJ4HZbsN7Djo5kHF861ef/gncq3kkB0tBUAAAAAASUVORK5CYII=;" parent="1" vertex="1">
                    <mxGeometry x="41.10999999999999" y="-230" width="77.77" height="110" as="geometry"/>
                </mxCell>
                <mxCell id="iiPUBCEVZnAYS4d27iNx-14" value="ThreadPoolExecutor()" style="ellipse;whiteSpace=wrap;html=1;" parent="1" vertex="1">
                    <mxGeometry x="520" y="356" width="120" height="80" as="geometry"/>
                </mxCell>
                <mxCell id="iiPUBCEVZnAYS4d27iNx-21" style="edgeStyle=orthogonalEdgeStyle;rounded=0;orthogonalLoop=1;jettySize=auto;html=1;exitX=0.5;exitY=1;exitDx=0;exitDy=0;entryX=0.5;entryY=0;entryDx=0;entryDy=0;" parent="1" source="23" target="iiPUBCEVZnAYS4d27iNx-14" edge="1">
                    <mxGeometry relative="1" as="geometry"/>
                </mxCell>
                <mxCell id="24" style="html=1;exitX=1;exitY=0.5;exitDx=0;exitDy=0;entryX=0.5;entryY=0;entryDx=0;entryDy=0;rounded=0;edgeStyle=orthogonalEdgeStyle;" edge="1" parent="1" source="iiPUBCEVZnAYS4d27iNx-17" target="29">
                    <mxGeometry relative="1" as="geometry"/>
                </mxCell>
                <mxCell id="30" value="Runs IA model&lt;br&gt;with the prompt created" style="edgeLabel;html=1;align=center;verticalAlign=middle;resizable=0;points=[];" vertex="1" connectable="0" parent="24">
                    <mxGeometry x="-0.223" y="4" relative="1" as="geometry">
                        <mxPoint x="-4" y="44" as="offset"/>
                    </mxGeometry>
                </mxCell>
                <mxCell id="iiPUBCEVZnAYS4d27iNx-17" value="create_message()" style="ellipse;whiteSpace=wrap;html=1;" parent="1" vertex="1">
                    <mxGeometry x="580" y="-190" width="120" height="80" as="geometry"/>
                </mxCell>
                <mxCell id="iiPUBCEVZnAYS4d27iNx-29" style="edgeStyle=orthogonalEdgeStyle;rounded=0;orthogonalLoop=1;jettySize=auto;html=1;exitX=1;exitY=0.5;exitDx=0;exitDy=0;entryX=0;entryY=0.5;entryDx=0;entryDy=0;" parent="1" source="iiPUBCEVZnAYS4d27iNx-25" target="iiPUBCEVZnAYS4d27iNx-28" edge="1">
                    <mxGeometry relative="1" as="geometry"/>
                </mxCell>
                <mxCell id="iiPUBCEVZnAYS4d27iNx-30" value="Extracts Defect Type&lt;br&gt;and Defect Qualifier&lt;br&gt;from IA&#39;s response" style="edgeLabel;html=1;align=center;verticalAlign=middle;resizable=0;points=[];" parent="iiPUBCEVZnAYS4d27iNx-29" connectable="0" vertex="1">
                    <mxGeometry x="-0.0133" relative="1" as="geometry">
                        <mxPoint as="offset"/>
                    </mxGeometry>
                </mxCell>
                <mxCell id="iiPUBCEVZnAYS4d27iNx-25" value="make_pattern()" style="ellipse;whiteSpace=wrap;html=1;" parent="1" vertex="1">
                    <mxGeometry x="30" y="550" width="120" height="80" as="geometry"/>
                </mxCell>
                <mxCell id="iiPUBCEVZnAYS4d27iNx-28" value="extract_defects()" style="ellipse;whiteSpace=wrap;html=1;" parent="1" vertex="1">
                    <mxGeometry x="350" y="550" width="120" height="80" as="geometry"/>
                </mxCell>
                <mxCell id="iiPUBCEVZnAYS4d27iNx-32" value="create_bar()" style="ellipse;whiteSpace=wrap;html=1;" parent="1" vertex="1">
                    <mxGeometry x="294" y="780" width="120" height="80" as="geometry"/>
                </mxCell>
                <mxCell id="12" style="edgeStyle=none;html=1;exitX=0;exitY=0.5;exitDx=0;exitDy=0;entryX=1;entryY=0.5;entryDx=0;entryDy=0;" edge="1" parent="1" source="3" target="11">
                    <mxGeometry relative="1" as="geometry"/>
                </mxCell>
                <mxCell id="13" value="Shows&amp;nbsp;&lt;div&gt;Pie Chart&lt;/div&gt;" style="edgeLabel;html=1;align=center;verticalAlign=middle;resizable=0;points=[];" vertex="1" connectable="0" parent="12">
                    <mxGeometry x="-0.0066" y="-1" relative="1" as="geometry">
                        <mxPoint as="offset"/>
                    </mxGeometry>
                </mxCell>
                <mxCell id="3" value="create_pie()" style="ellipse;whiteSpace=wrap;html=1;" vertex="1" parent="1">
                    <mxGeometry x="294" y="910" width="120" height="80" as="geometry"/>
                </mxCell>
                <mxCell id="5" style="edgeStyle=orthogonalEdgeStyle;rounded=0;orthogonalLoop=1;jettySize=auto;html=1;entryX=1;entryY=0.5;entryDx=0;entryDy=0;exitX=0.5;exitY=1;exitDx=0;exitDy=0;exitPerimeter=0;" edge="1" parent="1" source="17" target="3">
                    <mxGeometry relative="1" as="geometry">
                        <mxPoint x="730" y="650" as="sourcePoint"/>
                        <mxPoint x="564.99" y="945" as="targetPoint"/>
                        <Array as="points">
                            <mxPoint x="730" y="950"/>
                        </Array>
                    </mxGeometry>
                </mxCell>
                <mxCell id="11" value="" style="image;html=1;image=img/lib/clip_art/finance/Pie_Chart_128x128.png" vertex="1" parent="1">
                    <mxGeometry x="60" y="910" width="80" height="80" as="geometry"/>
                </mxCell>
                <mxCell id="18" value="" style="edgeStyle=orthogonalEdgeStyle;rounded=0;orthogonalLoop=1;jettySize=auto;html=1;entryX=0.5;entryY=0;entryDx=0;entryDy=0;exitX=0.5;exitY=1;exitDx=0;exitDy=0;exitPerimeter=0;" edge="1" parent="1" source="_67Cv4Us2NsQdFtEGARv-22" target="17">
                    <mxGeometry relative="1" as="geometry">
                        <mxPoint x="730" y="630" as="sourcePoint"/>
                        <mxPoint x="414" y="950" as="targetPoint"/>
                        <Array as="points"/>
                    </mxGeometry>
                </mxCell>
                <mxCell id="19" value="Creates a dataframe&lt;div&gt;with the frequency&lt;/div&gt;&lt;div&gt;of each defect by IA model&lt;br&gt;and prints it&lt;/div&gt;" style="edgeLabel;html=1;align=center;verticalAlign=middle;resizable=0;points=[];" connectable="0" vertex="1" parent="18">
                    <mxGeometry x="-0.0278" y="3" relative="1" as="geometry">
                        <mxPoint x="-3" y="8" as="offset"/>
                    </mxGeometry>
                </mxCell>
                <mxCell id="17" value="create_bar()" style="ellipse;whiteSpace=wrap;html=1;" vertex="1" parent="1">
                    <mxGeometry x="670" y="780" width="120" height="80" as="geometry"/>
                </mxCell>
                <mxCell id="22" value="Creates a pie chart for&lt;br&gt;each IA model&lt;br&gt;with the frequency&lt;br&gt;of each answer" style="edgeLabel;html=1;align=center;verticalAlign=middle;resizable=0;points=[];" connectable="0" vertex="1" parent="1">
                    <mxGeometry x="549.8333333333289" y="950" as="geometry"/>
                </mxCell>
                <mxCell id="23" value="process_commit()" style="ellipse;whiteSpace=wrap;html=1;" vertex="1" parent="1">
                    <mxGeometry x="520" y="80" width="120" height="80" as="geometry"/>
                </mxCell>
                <mxCell id="25" value="Uses multiple threads&lt;div&gt;to handle multiple requests&lt;br&gt;at the same time&lt;br&gt;to reduce the I/O bound time&lt;/div&gt;" style="edgeLabel;html=1;align=center;verticalAlign=middle;resizable=0;points=[];" connectable="0" vertex="1" parent="1">
                    <mxGeometry x="560" y="240.00476190476192" as="geometry">
                        <mxPoint x="17" y="-1" as="offset"/>
                    </mxGeometry>
                </mxCell>
                <mxCell id="32" style="edgeStyle=orthogonalEdgeStyle;html=1;exitX=0.5;exitY=1;exitDx=0;exitDy=0;entryX=1;entryY=0;entryDx=0;entryDy=0;rounded=0;curved=0;" edge="1" parent="1" source="29" target="23">
                    <mxGeometry relative="1" as="geometry">
                        <Array as="points">
                            <mxPoint x="760" y="92"/>
                        </Array>
                    </mxGeometry>
                </mxCell>
                <mxCell id="33" value="Loops through&lt;br&gt;each file in&lt;br&gt;each commit" style="edgeLabel;html=1;align=center;verticalAlign=middle;resizable=0;points=[];" vertex="1" connectable="0" parent="32">
                    <mxGeometry x="-0.069" y="-1" relative="1" as="geometry">
                        <mxPoint x="-24" y="-1" as="offset"/>
                    </mxGeometry>
                </mxCell>
                <mxCell id="29" value="call_model()" style="ellipse;whiteSpace=wrap;html=1;" vertex="1" parent="1">
                    <mxGeometry x="700" y="-40" width="120" height="80" as="geometry"/>
                </mxCell>
            </root>
        </mxGraphModel>
    </diagram>
</mxfile>